<?xml version="1.0" encoding="UTF-8" standalone="no"?>
<svg
   xmlns:dc="http://purl.org/dc/elements/1.1/"
   xmlns:cc="http://creativecommons.org/ns#"
   xmlns:rdf="http://www.w3.org/1999/02/22-rdf-syntax-ns#"
   xmlns:svg="http://www.w3.org/2000/svg"
   xmlns="http://www.w3.org/2000/svg"
   xmlns:sodipodi="http://sodipodi.sourceforge.net/DTD/sodipodi-0.dtd"
   xmlns:inkscape="http://www.inkscape.org/namespaces/inkscape"
   id="Logo_FIXED"
   data-name="Logo — FIXED"
   viewBox="0 0 400 400"
   version="1.1"
   sodipodi:docname="twitter-yellow.svg"
   inkscape:version="0.92.1 r15371">
  <metadata
     id="metadata15">
    <rdf:RDF>
      <cc:Work
         rdf:about="">
        <dc:format>image/svg+xml</dc:format>
        <dc:type
           rdf:resource="http://purl.org/dc/dcmitype/StillImage" />
        <dc:title>Twitter_Logo_Blue</dc:title>
      </cc:Work>
    </rdf:RDF>
  </metadata>
  <sodipodi:namedview
     pagecolor="#ffffff"
     bordercolor="#666666"
     borderopacity="1"
     objecttolerance="10"
     gridtolerance="10"
     guidetolerance="10"
     inkscape:pageopacity="0"
     inkscape:pageshadow="2"
     inkscape:window-width="1855"
     inkscape:window-height="1056"
     id="namedview13"
     showgrid="false"
     inkscape:zoom="0.59"
     inkscape:cx="-55.084746"
     inkscape:cy="200"
     inkscape:window-x="65"
     inkscape:window-y="24"
     inkscape:window-maximized="1"
     inkscape:current-layer="Logo_FIXED" />
  <defs
     id="defs4">
    <style
       id="style2">.cls-1{fill:none;}.cls-2{fill:#1da1f2;}</style>
  </defs>
  <title
     id="title6">Twitter_Logo_Blue</title>
  <rect
     class="cls-1"
     width="400"
     height="400"
     id="rect8" />
  <path
     class="cls-2"
     d="m 127.83567,360.91203 c 148.65276,0 229.95956,-123.15773 229.95956,-229.95956 0,-3.49809 0,-6.98041 -0.23637,-10.44698 A 164.44141,164.44141 0 0 0 397.88136,78.670318 161.3215,161.3215 0 0 1 351.46085,91.386319 81.101949,81.101949 0 0 0 386.99318,46.683345 161.96754,161.96754 0 0 1 335.67221,66.300971 80.897107,80.897107 0 0 0 197.93914,140.01282 229.45533,229.45533 0 0 1 31.370507,55.570369 80.881349,80.881349 0 0 0 56.392835,163.45943 80.21955,80.21955 0 0 1 19.71023,153.34336 c 0,0.33089 0,0.67756 0,1.02421 a 80.849834,80.849834 0 0 0 64.840587,79.22685 80.692263,80.692263 0 0 1 -36.493507,1.38663 80.912863,80.912863 0 0 0 75.50816,56.12689 A 162.17239,162.17239 0 0 1 23.192557,325.77362 164.5202,164.5202 0 0 1 3.9530998,324.6076 228.80929,228.80929 0 0 0 127.83567,360.84901"
     id="path10"
     style="fill:#e9af32;fill-opacity:1;stroke-width:1.57571304"
     inkscape:connector-curvature="0" />
</svg>
