<?xml version="1.0" encoding="UTF-8" standalone="no"?>
<svg
   xmlns:dc="http://purl.org/dc/elements/1.1/"
   xmlns:cc="http://creativecommons.org/ns#"
   xmlns:rdf="http://www.w3.org/1999/02/22-rdf-syntax-ns#"
   xmlns:svg="http://www.w3.org/2000/svg"
   xmlns="http://www.w3.org/2000/svg"
   xmlns:sodipodi="http://sodipodi.sourceforge.net/DTD/sodipodi-0.dtd"
   xmlns:inkscape="http://www.inkscape.org/namespaces/inkscape"
   id="Logo_FIXED"
   data-name="Logo — FIXED"
   viewBox="0 0 400 400"
   version="1.1"
   sodipodi:docname="twitter.svg"
   inkscape:version="0.92.1 r15371">
  <metadata
     id="metadata15">
    <rdf:RDF>
      <cc:Work
         rdf:about="">
        <dc:format>image/svg+xml</dc:format>
        <dc:type
           rdf:resource="http://purl.org/dc/dcmitype/StillImage" />
      </cc:Work>
    </rdf:RDF>
  </metadata>
  <sodipodi:namedview
     pagecolor="#ffffff"
     bordercolor="#666666"
     borderopacity="1"
     objecttolerance="10"
     gridtolerance="10"
     guidetolerance="10"
     inkscape:pageopacity="0"
     inkscape:pageshadow="2"
     inkscape:window-width="1855"
     inkscape:window-height="1056"
     id="namedview13"
     showgrid="false"
     inkscape:zoom="0.59"
     inkscape:cx="200"
     inkscape:cy="200"
     inkscape:window-x="65"
     inkscape:window-y="24"
     inkscape:window-maximized="1"
     inkscape:current-layer="Logo_FIXED" />
  <defs
     id="defs4">
    <style
       id="style2">.cls-1{fill:none;}.cls-2{fill:#1da1f2;}</style>
  </defs>
  <title
     id="title6">Twitter_Logo_Blue</title>
  <rect
     class="cls-1"
     width="400"
     height="400"
     id="rect8" />
  <path
     class="cls-2"
     d="m 127.83567,365.99678 c 148.65276,0 229.95955,-123.15773 229.95955,-229.95956 0,-3.49808 0,-6.9804 -0.23636,-10.44697 A 164.44141,164.44141 0 0 0 397.88136,83.755067 161.3215,161.3215 0 0 1 351.46085,96.471071 81.101948,81.101948 0 0 0 386.99318,51.768093 161.96754,161.96754 0 0 1 335.67221,71.38572 80.897106,80.897106 0 0 0 197.93914,145.09757 229.45533,229.45533 0 0 1 31.370515,60.655114 80.881349,80.881349 0 0 0 56.392838,168.54418 80.219549,80.219549 0 0 1 19.710239,158.42811 c 0,0.3309 0,0.67755 0,1.02421 a 80.849834,80.849834 0 0 0 64.84059,79.22685 80.692263,80.692263 0 0 1 -36.493513,1.38663 80.912863,80.912863 0 0 0 75.508164,56.12689 162.17238,162.17238 0 0 1 -100.372915,34.66569 164.52019,164.52019 0 0 1 -19.239456,-1.16603 228.80929,228.80929 0 0 0 123.882561,36.2414"
     id="path10"
     inkscape:connector-curvature="0"
     style="fill:#1da1f2;stroke-width:1.57571304" />
</svg>
