<svg id="Grupo_36" data-name="Grupo 36" xmlns="http://www.w3.org/2000/svg" xmlns:xlink="http://www.w3.org/1999/xlink" width="20" height="20" viewBox="0 0 20 20">
  <defs>
    <clipPath id="clip-path">
      <rect id="Rectángulo_92" data-name="Rectángulo 92" width="20" height="20" fill="#e9af31"/>
    </clipPath>
  </defs>
  <g id="Grupo_29" data-name="Grupo 29" clip-path="url(#clip-path)">
    <path id="Trazado_63" data-name="Trazado 63" d="M20.75,19.5h-7.5A1.252,1.252,0,0,1,12,18.25V16.375h1.25V18.25h7.5v-15h-7.5V5.125H12V3.25A1.252,1.252,0,0,1,13.25,2h7.5A1.251,1.251,0,0,1,22,3.25v15a1.251,1.251,0,0,1-1.25,1.25" transform="translate(-4.5 -0.75)" fill="#e9af31"/>
    <path id="Trazado_64" data-name="Trazado 64" d="M10.616,16.616l2.241-2.241H4v-1.25h8.857l-2.241-2.241L11.5,10l3.75,3.75L11.5,17.5Z" transform="translate(-1.5 -3.75)" fill="#e9af31"/>
  </g>
</svg>
