<svg xmlns="http://www.w3.org/2000/svg" width="21.4" height="21.4" viewBox="0 0 21.4 21.4">
  <g id="Grupo_74" data-name="Grupo 74" transform="translate(-5375 -1247)">
    <path id="Trazado_53" data-name="Trazado 53" d="M14.821,8a3.821,3.821,0,1,0,3.821,3.821A3.822,3.822,0,0,0,14.821,8m0,6.114a2.293,2.293,0,1,1,2.293-2.293,2.3,2.3,0,0,1-2.293,2.293" transform="translate(5370.878 1243.586)" fill="#e9af31"/>
    <path id="Trazado_54" data-name="Trazado 54" d="M12.7,2A10.7,10.7,0,1,0,23.4,12.7,10.713,10.713,0,0,0,12.7,2M8.114,20.631V19.578a2.3,2.3,0,0,1,2.293-2.293h4.586a2.3,2.3,0,0,1,2.293,2.293v1.052a9.1,9.1,0,0,1-9.171,0m10.695-1.109a3.824,3.824,0,0,0-3.816-3.765H10.407a3.823,3.823,0,0,0-3.815,3.765,9.171,9.171,0,1,1,12.217,0" transform="translate(5373 1245)" fill="#e9af31"/>
  </g>
</svg>
